<?xml version="1.0" encoding="utf-8"?>
<!-- Generator: Adobe Illustrator 16.0.3, SVG Export Plug-In . SVG Version: 6.00 Build 0)  -->
<!DOCTYPE svg PUBLIC "-//W3C//DTD SVG 1.1//EN" "http://www.w3.org/Graphics/SVG/1.1/DTD/svg11.dtd">
<svg version="1.1" id="Calque_3" xmlns="http://www.w3.org/2000/svg" xmlns:xlink="http://www.w3.org/1999/xlink" x="0px" y="0px"
	 width="450px" height="240px" viewBox="0 0 450 240" enable-background="new 0 0 450 240" xml:space="preserve">
<g>
	<path fill-rule="evenodd" clip-rule="evenodd" fill="#231F20" d="M8.802,28.592c11.576,0,22.553,0,34.02,0
		c0,19.719,0,39.305,0,58.71c7.348-2.086,14.173-4.674,21.234-5.918c31.384-5.525,62.54,13.635,72.539,44.222
		c10.021,30.66-4.122,64.492-32.938,78.793c-43.805,21.74-94.757-9.719-94.84-58.613C8.754,108.252,8.803,70.718,8.802,33.184
		C8.802,31.81,8.802,30.434,8.802,28.592z M39.839,145.933c0.008,18.896,15.354,34.289,34.248,34.355
		c19.063,0.067,34.677-15.45,34.686-34.47c0.009-18.893-15.761-34.479-34.803-34.397C55.178,111.504,39.831,127.021,39.839,145.933z
		"/>
	<path fill-rule="evenodd" clip-rule="evenodd" fill="#231F20" d="M414.345,130.169c-16.345-25.462-42.841-21.116-55.086-9.044
		c-14.322,14.115-13.989,37.159,1.179,50.466c8.697,7.634,18.901,10.317,30.296,7.792c11.193-2.481,18.816-9.538,24.208-19.674
		c8.963,5.164,17.651,10.169,26.273,15.135c-6.347,21.771-37.796,38.97-65.569,36.121c-30.938-3.169-55.66-29.146-57.905-60.852
		c-2.187-30.812,18.849-60.013,48.697-67.543c34.748-8.766,63.526,10.707,74.194,32.415
		C431.889,120.036,423.111,125.106,414.345,130.169z"/>
	<path fill-rule="evenodd" clip-rule="evenodd" fill="#231F20" d="M268.948,115.031c-8.663,4.999-17.356,10.014-26.438,15.253
		c-7.235-11.936-17.459-18.922-31.573-18.775c-9.944,0.105-18.35,4.118-25.037,11.509c-13.295,14.693-11.159,37.533,4.488,49.971
		c13.659,10.858,39.228,11.8,53.088-13.193c8.795,5.072,17.584,10.143,26.333,15.189c-8.431,19.706-34.476,41.055-68.278,35.54
		c-32.41-5.289-55.077-31.866-55.496-63.908c-0.405-30.969,21.554-58.599,51.741-64.764
		C232.812,74.696,259.643,95.311,268.948,115.031z"/>
	<path fill-rule="evenodd" clip-rule="evenodd" fill="#231F20" d="M310.959,211.156c-9.568,0.118-17.396-3.413-23.896-9.856
		c-6.307-6.251-9.892-13.952-9.905-22.892c-0.079-49.326-0.026-98.653-0.008-147.981c0-0.449,0.126-0.899,0.24-1.659
		c11.07,0,22.152,0,33.569,0C310.959,89.451,310.959,150.119,310.959,211.156z"/>
	<path fill-rule="evenodd" clip-rule="evenodd" fill="#231F20" d="M232.819,145.914c1.021,10.321-8.778,21.558-21.443,21.347
		c-11.939-0.2-21.399-9.73-21.324-21.648c0.072-11.563,9.659-21.022,21.403-21.119C223.521,124.396,232.824,133.724,232.819,145.914
		z"/>
	<path fill-rule="evenodd" clip-rule="evenodd" fill="#231F20" d="M383.071,167.239c-11.92-0.077-21.752-10.013-21.473-21.696
		c0.28-11.694,9.98-21.134,21.653-21.069c11.926,0.066,21.249,9.374,21.3,21.265C404.603,157.906,395.203,167.319,383.071,167.239z"
		/>
	<path fill-rule="evenodd" clip-rule="evenodd" fill="#231F20" d="M74.352,124.496c11.656,0.014,21.258,9.565,21.352,21.246
		c0.097,11.849-9.612,21.529-21.553,21.49c-11.954-0.038-21.413-9.679-21.282-21.688C52.996,133.858,62.564,124.485,74.352,124.496z
		"/>
</g>
</svg>
